STARTFONT 2.1
FONT -Monotype-Arial-Regular-I-Normal--10-100-75-75-P-54-iso8859-5
SIZE 10 75 75
FONTBOUNDINGBOX 12 12 -1 -2

STARTPROPERTIES 24
FOUNDRY "Monotype"
FAMILY_NAME "Arial"
WEIGHT_NAME "Regular"
SLANT "I"
SETWIDTH_NAME "Normal"
ADD_STYLE_NAME ""
PIXEL_SIZE 10
POINT_SIZE 100
RESOLUTION_X 75
RESOLUTION_Y 75
SPACING "P"
AVERAGE_WIDTH 54
CHARSET_REGISTRY "iso8859"
CHARSET_ENCODING "5"
FACE_NAME "Arial Inclined ISO Latin Cyrillic"
_DEC_DEVICE_FONTNAMES "PS=arial-in-latcyrillic"
COPYRIGHT "Copyright (c) 1994 Monotype Typography Ltd."
CAP_HEIGHT 8
X_HEIGHT 6
WEIGHT 10
QUAD_WIDTH 6
DEFAULT_CHAR 160
FONT_DESCENT 2
FONT_ASCENT 10
ENDPROPERTIES

CHARS 191

STARTCHAR space
ENCODING 32
SWIDTH 278 0
DWIDTH 3 0
BBX 0 0 0 0
BITMAP
ENDCHAR

STARTCHAR exclam
ENCODING 33
SWIDTH 278 0
DWIDTH 3 0
BBX 2 7 1 0
BITMAP
40
40
40
80
80
00
80
ENDCHAR

STARTCHAR quotedbl
ENCODING 34
SWIDTH 355 0
DWIDTH 4 0
BBX 4 3 1 4
BITMAP
50
A0
A0
ENDCHAR

STARTCHAR numbersign
ENCODING 35
SWIDTH 556 0
DWIDTH 6 0
BBX 7 7 0 0
BITMAP
14
14
7E
28
FC
50
50
ENDCHAR

STARTCHAR dollar
ENCODING 36
SWIDTH 556 0
DWIDTH 6 0
BBX 6 9 1 -1
BITMAP
10
38
54
50
30
28
A8
70
20
ENDCHAR

STARTCHAR percent
ENCODING 37
SWIDTH 889 0
DWIDTH 9 0
BBX 7 8 1 -1
BITMAP
62
A4
A8
D0
16
2A
4A
8C
ENDCHAR

STARTCHAR ampersand
ENCODING 38
SWIDTH 667 0
DWIDTH 7 0
BBX 6 7 1 0
BITMAP
18
28
28
30
54
98
74
ENDCHAR

STARTCHAR quoteright
ENCODING 39
SWIDTH 222 0
DWIDTH 2 0
BBX 2 3 1 4
BITMAP
40
40
80
ENDCHAR

STARTCHAR parenleft
ENCODING 40
SWIDTH 333 0
DWIDTH 3 0
BBX 3 9 1 -2
BITMAP
20
40
40
80
80
80
80
80
40
ENDCHAR

STARTCHAR parenright
ENCODING 41
SWIDTH 333 0
DWIDTH 3 0
BBX 3 9 0 -2
BITMAP
40
20
20
20
20
20
40
40
80
ENDCHAR

STARTCHAR asterisk
ENCODING 42
SWIDTH 389 0
DWIDTH 4 0
BBX 3 4 1 4
BITMAP
40
E0
40
A0
ENDCHAR

STARTCHAR plus
ENCODING 43
SWIDTH 584 0
DWIDTH 6 0
BBX 5 5 1 1
BITMAP
20
20
F8
20
20
ENDCHAR

STARTCHAR comma
ENCODING 44
SWIDTH 278 0
DWIDTH 3 0
BBX 2 3 0 -1
BITMAP
40
40
80
ENDCHAR

STARTCHAR minus
ENCODING 45
SWIDTH 584 0
DWIDTH 6 0
BBX 5 1 1 3
BITMAP
F8
ENDCHAR

STARTCHAR period
ENCODING 46
SWIDTH 278 0
DWIDTH 3 0
BBX 1 1 1 0
BITMAP
80
ENDCHAR

STARTCHAR slash
ENCODING 47
SWIDTH 278 0
DWIDTH 3 0
BBX 3 7 0 0
BITMAP
20
20
40
40
40
80
80
ENDCHAR

STARTCHAR zero
ENCODING 48
SWIDTH 556 0
DWIDTH 6 0
BBX 5 7 1 0
BITMAP
30
48
88
88
88
90
60
ENDCHAR

STARTCHAR one
ENCODING 49
SWIDTH 556 0
DWIDTH 6 0
BBX 4 7 2 0
BITMAP
10
E0
20
20
40
40
40
ENDCHAR

STARTCHAR two
ENCODING 50
SWIDTH 556 0
DWIDTH 6 0
BBX 5 7 1 0
BITMAP
30
48
08
10
20
40
F0
ENDCHAR

STARTCHAR three
ENCODING 51
SWIDTH 556 0
DWIDTH 6 0
BBX 5 7 1 0
BITMAP
30
48
08
30
08
88
70
ENDCHAR

STARTCHAR four
ENCODING 52
SWIDTH 556 0
DWIDTH 6 0
BBX 6 7 1 0
BITMAP
08
18
28
50
FC
10
10
ENDCHAR

STARTCHAR five
ENCODING 53
SWIDTH 556 0
DWIDTH 6 0
BBX 5 7 1 0
BITMAP
78
40
70
48
08
90
60
ENDCHAR

STARTCHAR six
ENCODING 54
SWIDTH 556 0
DWIDTH 6 0
BBX 5 7 1 0
BITMAP
18
20
70
88
88
90
60
ENDCHAR

STARTCHAR seven
ENCODING 55
SWIDTH 556 0
DWIDTH 6 0
BBX 5 7 2 0
BITMAP
F8
10
20
40
40
80
80
ENDCHAR

STARTCHAR eight
ENCODING 56
SWIDTH 556 0
DWIDTH 6 0
BBX 5 7 1 0
BITMAP
30
48
48
70
88
88
70
ENDCHAR

STARTCHAR nine
ENCODING 57
SWIDTH 556 0
DWIDTH 6 0
BBX 5 7 1 0
BITMAP
30
48
88
88
70
20
C0
ENDCHAR

STARTCHAR colon
ENCODING 58
SWIDTH 278 0
DWIDTH 3 0
BBX 2 5 1 0
BITMAP
40
00
00
00
80
ENDCHAR

STARTCHAR semicolon
ENCODING 59
SWIDTH 278 0
DWIDTH 3 0
BBX 3 7 0 -2
BITMAP
20
00
00
00
40
40
80
ENDCHAR

STARTCHAR less
ENCODING 60
SWIDTH 584 0
DWIDTH 6 0
BBX 5 5 1 1
BITMAP
08
30
C0
30
08
ENDCHAR

STARTCHAR equal
ENCODING 61
SWIDTH 584 0
DWIDTH 6 0
BBX 5 3 1 2
BITMAP
F8
00
F8
ENDCHAR

STARTCHAR greater
ENCODING 62
SWIDTH 584 0
DWIDTH 6 0
BBX 5 5 1 1
BITMAP
80
60
18
60
80
ENDCHAR

STARTCHAR question
ENCODING 63
SWIDTH 556 0
DWIDTH 6 0
BBX 4 7 2 0
BITMAP
60
90
10
60
80
00
80
ENDCHAR

STARTCHAR at
ENCODING 64
SWIDTH 1015 0
DWIDTH 10 0
BBX 9 9 1 -2
BITMAP
3E00
4100
9A80
A680
A480
A500
9A00
4180
3E00
ENDCHAR

STARTCHAR A
ENCODING 65
SWIDTH 667 0
DWIDTH 7 0
BBX 7 7 -1 0
BITMAP
02
06
0A
12
3E
42
82
ENDCHAR

STARTCHAR B
ENCODING 66
SWIDTH 667 0
DWIDTH 7 0
BBX 6 7 1 0
BITMAP
78
44
44
78
88
88
F0
ENDCHAR

STARTCHAR C
ENCODING 67
SWIDTH 722 0
DWIDTH 7 0
BBX 6 7 1 0
BITMAP
38
44
80
80
80
88
70
ENDCHAR

STARTCHAR D
ENCODING 68
SWIDTH 722 0
DWIDTH 7 0
BBX 6 7 1 0
BITMAP
78
44
44
84
84
88
F0
ENDCHAR

STARTCHAR E
ENCODING 69
SWIDTH 667 0
DWIDTH 7 0
BBX 6 7 1 0
BITMAP
7C
40
40
78
80
80
F8
ENDCHAR

STARTCHAR F
ENCODING 70
SWIDTH 611 0
DWIDTH 6 0
BBX 6 7 1 0
BITMAP
7C
40
40
78
80
80
80
ENDCHAR

STARTCHAR G
ENCODING 71
SWIDTH 778 0
DWIDTH 8 0
BBX 7 7 1 0
BITMAP
3C
42
80
9C
84
84
78
ENDCHAR

STARTCHAR H
ENCODING 72
SWIDTH 722 0
DWIDTH 7 0
BBX 6 7 1 0
BITMAP
44
44
44
FC
88
88
88
ENDCHAR

STARTCHAR I
ENCODING 73
SWIDTH 278 0
DWIDTH 3 0
BBX 2 7 1 0
BITMAP
40
40
40
40
80
80
80
ENDCHAR

STARTCHAR J
ENCODING 74
SWIDTH 500 0
DWIDTH 5 0
BBX 5 7 0 0
BITMAP
08
08
08
10
10
90
60
ENDCHAR

STARTCHAR K
ENCODING 75
SWIDTH 667 0
DWIDTH 7 0
BBX 6 7 1 0
BITMAP
44
48
50
60
90
88
84
ENDCHAR

STARTCHAR L
ENCODING 76
SWIDTH 556 0
DWIDTH 6 0
BBX 5 7 1 0
BITMAP
40
40
40
80
80
80
F8
ENDCHAR

STARTCHAR M
ENCODING 77
SWIDTH 833 0
DWIDTH 9 0
BBX 8 7 1 0
BITMAP
41
43
65
69
9A
92
92
ENDCHAR

STARTCHAR N
ENCODING 78
SWIDTH 722 0
DWIDTH 7 0
BBX 6 7 1 0
BITMAP
44
44
64
54
98
88
88
ENDCHAR

STARTCHAR O
ENCODING 79
SWIDTH 778 0
DWIDTH 8 0
BBX 7 7 1 0
BITMAP
3C
42
82
82
82
84
78
ENDCHAR

STARTCHAR P
ENCODING 80
SWIDTH 667 0
DWIDTH 7 0
BBX 6 7 1 0
BITMAP
78
44
44
78
80
80
80
ENDCHAR

STARTCHAR Q
ENCODING 81
SWIDTH 778 0
DWIDTH 8 0
BBX 7 8 1 -1
BITMAP
3C
42
82
82
92
9C
74
04
ENDCHAR

STARTCHAR R
ENCODING 82
SWIDTH 722 0
DWIDTH 7 0
BBX 6 7 1 0
BITMAP
78
44
44
F8
A0
90
88
ENDCHAR

STARTCHAR S
ENCODING 83
SWIDTH 667 0
DWIDTH 7 0
BBX 6 7 1 0
BITMAP
38
44
40
30
08
88
70
ENDCHAR

STARTCHAR T
ENCODING 84
SWIDTH 611 0
DWIDTH 5 0
BBX 5 7 1 0
BITMAP
F8
20
20
20
40
40
40
ENDCHAR

STARTCHAR U
ENCODING 85
SWIDTH 722 0
DWIDTH 7 0
BBX 6 7 1 0
BITMAP
44
44
44
88
88
88
70
ENDCHAR

STARTCHAR V
ENCODING 86
SWIDTH 667 0
DWIDTH 6 0
BBX 6 7 1 0
BITMAP
84
88
88
50
60
60
40
ENDCHAR

STARTCHAR W
ENCODING 87
SWIDTH 944 0
DWIDTH 9 0
BBX 9 7 1 0
BITMAP
8880
9900
9900
AA00
CC00
CC00
8800
ENDCHAR

STARTCHAR X
ENCODING 88
SWIDTH 667 0
DWIDTH 7 0
BBX 7 7 1 0
BITMAP
42
24
28
10
28
48
84
ENDCHAR

STARTCHAR Y
ENCODING 89
SWIDTH 667 0
DWIDTH 7 0
BBX 7 7 1 0
BITMAP
82
44
48
30
20
20
20
ENDCHAR

STARTCHAR Z
ENCODING 90
SWIDTH 611 0
DWIDTH 6 0
BBX 7 7 0 0
BITMAP
7E
04
08
10
20
40
FC
ENDCHAR

STARTCHAR bracketleft
ENCODING 91
SWIDTH 278 0
DWIDTH 3 0
BBX 4 9 0 -2
BITMAP
30
20
20
40
40
40
80
80
C0
ENDCHAR

STARTCHAR backslash
ENCODING 92
SWIDTH 278 0
DWIDTH 3 0
BBX 3 7 0 0
BITMAP
80
80
40
40
20
20
20
ENDCHAR

STARTCHAR bracketright
ENCODING 93
SWIDTH 278 0
DWIDTH 3 0
BBX 4 9 -1 -2
BITMAP
30
10
10
20
20
20
40
40
C0
ENDCHAR

STARTCHAR asciicircum
ENCODING 94
SWIDTH 469 0
DWIDTH 5 0
BBX 4 4 1 3
BITMAP
60
60
B0
90
ENDCHAR

STARTCHAR underscore
ENCODING 95
SWIDTH 556 0
DWIDTH 6 0
BBX 6 1 0 -2
BITMAP
FC
ENDCHAR

STARTCHAR quoteleft
ENCODING 96
SWIDTH 222 0
DWIDTH 2 0
BBX 2 3 1 4
BITMAP
40
80
80
ENDCHAR

STARTCHAR a
ENCODING 97
SWIDTH 556 0
DWIDTH 6 0
BBX 5 5 1 0
BITMAP
30
08
78
90
E8
ENDCHAR

STARTCHAR b
ENCODING 98
SWIDTH 556 0
DWIDTH 6 0
BBX 5 7 1 0
BITMAP
40
40
70
48
88
D0
A0
ENDCHAR

STARTCHAR c
ENCODING 99
SWIDTH 500 0
DWIDTH 5 0
BBX 5 5 1 0
BITMAP
30
48
80
90
60
ENDCHAR

STARTCHAR d
ENCODING 100
SWIDTH 556 0
DWIDTH 6 0
BBX 6 7 1 0
BITMAP
04
04
34
58
88
98
68
ENDCHAR

STARTCHAR e
ENCODING 101
SWIDTH 556 0
DWIDTH 6 0
BBX 5 5 1 0
BITMAP
30
48
F0
80
70
ENDCHAR

STARTCHAR f
ENCODING 102
SWIDTH 278 0
DWIDTH 3 0
BBX 5 7 0 0
BITMAP
18
20
F0
20
40
40
40
ENDCHAR

STARTCHAR g
ENCODING 103
SWIDTH 556 0
DWIDTH 6 0
BBX 5 7 1 -2
BITMAP
28
58
88
88
70
10
E0
ENDCHAR

STARTCHAR h
ENCODING 104
SWIDTH 556 0
DWIDTH 6 0
BBX 5 7 1 0
BITMAP
40
40
50
68
88
90
90
ENDCHAR

STARTCHAR i
ENCODING 105
SWIDTH 222 0
DWIDTH 3 0
BBX 3 7 1 0
BITMAP
20
00
40
40
40
80
80
ENDCHAR

STARTCHAR j
ENCODING 106
SWIDTH 222 0
DWIDTH 3 0
BBX 4 9 0 -2
BITMAP
10
00
20
20
20
40
40
40
80
ENDCHAR

STARTCHAR k
ENCODING 107
SWIDTH 500 0
DWIDTH 5 0
BBX 5 7 1 0
BITMAP
40
40
58
A0
C0
A0
90
ENDCHAR

STARTCHAR l
ENCODING 108
SWIDTH 222 0
DWIDTH 3 0
BBX 2 7 1 0
BITMAP
40
40
40
40
80
80
80
ENDCHAR

STARTCHAR m
ENCODING 109
SWIDTH 833 0
DWIDTH 9 0
BBX 8 5 1 0
BITMAP
5B
6D
49
92
92
ENDCHAR

STARTCHAR n
ENCODING 110
SWIDTH 556 0
DWIDTH 6 0
BBX 5 5 1 0
BITMAP
50
68
48
90
90
ENDCHAR

STARTCHAR o
ENCODING 111
SWIDTH 556 0
DWIDTH 6 0
BBX 5 5 1 0
BITMAP
30
48
88
90
60
ENDCHAR

STARTCHAR p
ENCODING 112
SWIDTH 556 0
DWIDTH 6 0
BBX 5 7 1 -2
BITMAP
50
68
48
C8
B0
80
80
ENDCHAR

STARTCHAR q
ENCODING 113
SWIDTH 556 0
DWIDTH 6 0
BBX 5 7 1 -2
BITMAP
28
58
88
90
70
10
10
ENDCHAR

STARTCHAR r
ENCODING 114
SWIDTH 333 0
DWIDTH 3 0
BBX 4 5 1 0
BITMAP
B0
40
40
80
80
ENDCHAR

STARTCHAR s
ENCODING 115
SWIDTH 500 0
DWIDTH 4 0
BBX 5 5 0 0
BITMAP
30
48
20
90
60
ENDCHAR

STARTCHAR t
ENCODING 116
SWIDTH 278 0
DWIDTH 3 0
BBX 4 7 1 0
BITMAP
40
40
F0
40
80
80
60
ENDCHAR

STARTCHAR u
ENCODING 117
SWIDTH 556 0
DWIDTH 6 0
BBX 5 5 1 0
BITMAP
48
48
90
B0
50
ENDCHAR

STARTCHAR v
ENCODING 118
SWIDTH 500 0
DWIDTH 4 0
BBX 4 5 1 0
BITMAP
90
A0
A0
C0
80
ENDCHAR

STARTCHAR w
ENCODING 119
SWIDTH 722 0
DWIDTH 7 0
BBX 7 5 1 0
BITMAP
92
B4
B4
D8
90
ENDCHAR

STARTCHAR x
ENCODING 120
SWIDTH 500 0
DWIDTH 5 0
BBX 5 5 0 0
BITMAP
48
30
20
50
88
ENDCHAR

STARTCHAR y
ENCODING 121
SWIDTH 500 0
DWIDTH 5 0
BBX 6 7 0 -2
BITMAP
44
48
50
20
20
40
80
ENDCHAR

STARTCHAR z
ENCODING 122
SWIDTH 500 0
DWIDTH 4 0
BBX 5 5 0 0
BITMAP
78
10
20
40
F0
ENDCHAR

STARTCHAR braceleft
ENCODING 123
SWIDTH 334 0
DWIDTH 3 0
BBX 5 9 0 -2
BITMAP
18
20
20
40
80
40
40
40
20
ENDCHAR

STARTCHAR bar
ENCODING 124
SWIDTH 260 0
DWIDTH 3 0
BBX 1 9 1 -2
BITMAP
80
80
80
80
80
80
80
80
80
ENDCHAR

STARTCHAR braceright
ENCODING 125
SWIDTH 334 0
DWIDTH 3 0
BBX 5 9 -1 -2
BITMAP
20
10
10
10
08
10
10
20
C0
ENDCHAR

STARTCHAR asciitilde
ENCODING 126
SWIDTH 584 0
DWIDTH 6 0
BBX 5 2 1 3
BITMAP
68
B0
ENDCHAR

STARTCHAR space
ENCODING 160
SWIDTH 278 0
DWIDTH 3 0
BBX 0 0 0 0
BITMAP
ENDCHAR

STARTCHAR afii10023
ENCODING 161
SWIDTH 667 0
DWIDTH 7 0
BBX 7 9 1 0
BITMAP
14
00
7E
40
40
7C
80
80
F8
ENDCHAR

STARTCHAR afii10051
ENCODING 162
SWIDTH 843 0
DWIDTH 8 0
BBX 7 7 1 0
BITMAP
F8
20
3C
22
42
42
5C
ENDCHAR

STARTCHAR afii10052
ENCODING 163
SWIDTH 569 0
DWIDTH 6 0
BBX 6 10 1 0
BITMAP
04
08
00
7C
40
40
40
80
80
80
ENDCHAR

STARTCHAR afii10053
ENCODING 164
SWIDTH 708 0
DWIDTH 7 0
BBX 7 7 1 0
BITMAP
3C
42
80
F0
80
84
78
ENDCHAR

STARTCHAR afii10054
ENCODING 165
SWIDTH 667 0
DWIDTH 7 0
BBX 6 7 1 0
BITMAP
38
44
40
30
08
88
70
ENDCHAR

STARTCHAR afii10055
ENCODING 166
SWIDTH 278 0
DWIDTH 3 0
BBX 2 7 1 0
BITMAP
40
40
40
80
80
80
80
ENDCHAR

STARTCHAR afii10056
ENCODING 167
SWIDTH 278 0
DWIDTH 3 0
BBX 3 9 1 0
BITMAP
A0
00
40
40
40
80
80
80
80
ENDCHAR

STARTCHAR afii10057
ENCODING 168
SWIDTH 500 0
DWIDTH 5 0
BBX 5 7 0 0
BITMAP
08
08
08
10
10
90
60
ENDCHAR

STARTCHAR afii10058
ENCODING 169
SWIDTH 1084 0
DWIDTH 11 0
BBX 11 7 -1 0
BITMAP
1F00
1200
1200
23C0
2420
2420
C7C0
ENDCHAR

STARTCHAR afii10059
ENCODING 170
SWIDTH 983 0
DWIDTH 10 0
BBX 9 7 1 0
BITMAP
4800
4800
4800
7F00
9080
9080
9F00
ENDCHAR

STARTCHAR afii10060
ENCODING 171
SWIDTH 850 0
DWIDTH 9 0
BBX 7 7 1 0
BITMAP
FC
20
2C
32
42
44
44
ENDCHAR

STARTCHAR afii10061
ENCODING 172
SWIDTH 589 0
DWIDTH 6 0
BBX 7 10 1 0
BITMAP
08
10
00
46
48
50
70
90
88
88
ENDCHAR

STARTCHAR hyphen
ENCODING 173
SWIDTH 333 0
DWIDTH 3 0
BBX 3 1 0 2
BITMAP
E0
ENDCHAR

STARTCHAR afii10062
ENCODING 174
SWIDTH 639 0
DWIDTH 6 0
BBX 6 10 1 0
BITMAP
48
30
00
84
88
48
50
20
20
C0
ENDCHAR

STARTCHAR afii10145
ENCODING 175
SWIDTH 728 0
DWIDTH 7 0
BBX 6 9 1 -2
BITMAP
44
44
44
88
88
88
F8
20
20
ENDCHAR

STARTCHAR afii10017
ENCODING 176
SWIDTH 667 0
DWIDTH 7 0
BBX 7 7 -1 0
BITMAP
02
06
0A
12
3E
42
82
ENDCHAR

STARTCHAR afii10018
ENCODING 177
SWIDTH 651 0
DWIDTH 7 0
BBX 6 7 1 0
BITMAP
7C
40
40
78
84
84
F8
ENDCHAR

STARTCHAR afii10019
ENCODING 178
SWIDTH 667 0
DWIDTH 7 0
BBX 6 7 1 0
BITMAP
78
44
44
78
84
84
F8
ENDCHAR

STARTCHAR afii10020
ENCODING 179
SWIDTH 569 0
DWIDTH 6 0
BBX 6 7 1 0
BITMAP
7C
40
40
40
80
80
80
ENDCHAR

STARTCHAR afii10021
ENCODING 180
SWIDTH 704 0
DWIDTH 7 0
BBX 8 8 -1 -1
BITMAP
1F
11
11
22
22
42
7E
82
ENDCHAR

STARTCHAR afii10022
ENCODING 181
SWIDTH 667 0
DWIDTH 7 0
BBX 6 7 1 0
BITMAP
7C
40
40
78
80
80
F8
ENDCHAR

STARTCHAR afii10024
ENCODING 182
SWIDTH 917 0
DWIDTH 9 0
BBX 10 7 0 0
BITMAP
64C0
2500
2500
1E00
2900
4900
C980
ENDCHAR

STARTCHAR afii10025
ENCODING 183
SWIDTH 611 0
DWIDTH 6 0
BBX 6 7 1 0
BITMAP
38
44
04
38
08
88
70
ENDCHAR

STARTCHAR afii10026
ENCODING 184
SWIDTH 719 0
DWIDTH 7 0
BBX 6 7 1 0
BITMAP
44
4C
54
A8
C8
88
88
ENDCHAR

STARTCHAR afii10027
ENCODING 185
SWIDTH 719 0
DWIDTH 7 0
BBX 6 10 1 0
BITMAP
24
18
00
44
4C
54
A8
C8
88
88
ENDCHAR

STARTCHAR afii10028
ENCODING 186
SWIDTH 589 0
DWIDTH 6 0
BBX 7 7 1 0
BITMAP
46
48
50
70
90
88
88
ENDCHAR

STARTCHAR afii10029
ENCODING 187
SWIDTH 690 0
DWIDTH 7 0
BBX 7 7 0 0
BITMAP
3E
22
22
44
44
44
84
ENDCHAR

STARTCHAR afii10030
ENCODING 188
SWIDTH 833 0
DWIDTH 8 0
BBX 8 7 1 0
BITMAP
41
43
65
79
9A
92
92
ENDCHAR

STARTCHAR afii10031
ENCODING 189
SWIDTH 722 0
DWIDTH 7 0
BBX 6 7 1 0
BITMAP
44
44
44
78
88
88
88
ENDCHAR

STARTCHAR afii10032
ENCODING 190
SWIDTH 778 0
DWIDTH 8 0
BBX 7 7 1 0
BITMAP
3C
42
82
82
82
84
78
ENDCHAR

STARTCHAR afii10033
ENCODING 191
SWIDTH 722 0
DWIDTH 7 0
BBX 6 7 1 0
BITMAP
7C
44
44
44
88
88
88
ENDCHAR

STARTCHAR afii10034
ENCODING 192
SWIDTH 667 0
DWIDTH 7 0
BBX 6 7 1 0
BITMAP
78
44
44
78
80
80
80
ENDCHAR

STARTCHAR afii10035
ENCODING 193
SWIDTH 722 0
DWIDTH 7 0
BBX 6 7 1 0
BITMAP
38
44
80
80
80
88
70
ENDCHAR

STARTCHAR afii10036
ENCODING 194
SWIDTH 611 0
DWIDTH 5 0
BBX 5 7 1 0
BITMAP
F8
20
20
20
40
40
40
ENDCHAR

STARTCHAR afii10037
ENCODING 195
SWIDTH 639 0
DWIDTH 6 0
BBX 6 7 1 0
BITMAP
84
88
48
50
20
20
C0
ENDCHAR

STARTCHAR afii10038
ENCODING 196
SWIDTH 795 0
DWIDTH 8 0
BBX 7 7 1 0
BITMAP
08
3C
52
92
94
78
20
ENDCHAR

STARTCHAR afii10039
ENCODING 197
SWIDTH 667 0
DWIDTH 7 0
BBX 7 7 0 0
BITMAP
42
24
28
10
28
48
84
ENDCHAR

STARTCHAR afii10040
ENCODING 198
SWIDTH 727 0
DWIDTH 7 0
BBX 6 8 1 -1
BITMAP
44
44
44
88
88
88
FC
04
ENDCHAR

STARTCHAR afii10041
ENCODING 199
SWIDTH 685 0
DWIDTH 7 0
BBX 6 7 1 0
BITMAP
44
44
88
88
78
10
10
ENDCHAR

STARTCHAR afii10042
ENCODING 200
SWIDTH 924 0
DWIDTH 9 0
BBX 8 7 1 0
BITMAP
49
49
49
92
92
92
FE
ENDCHAR

STARTCHAR afii10043
ENCODING 201
SWIDTH 924 0
DWIDTH 9 0
BBX 8 9 1 -2
BITMAP
49
49
49
92
92
92
FF
01
01
ENDCHAR

STARTCHAR afii10044
ENCODING 202
SWIDTH 805 0
DWIDTH 8 0
BBX 7 7 1 0
BITMAP
E0
20
20
3C
42
42
7C
ENDCHAR

STARTCHAR afii10045
ENCODING 203
SWIDTH 886 0
DWIDTH 9 0
BBX 8 7 1 0
BITMAP
41
41
41
F2
8A
8A
F2
ENDCHAR

STARTCHAR afii10046
ENCODING 204
SWIDTH 651 0
DWIDTH 7 0
BBX 6 7 1 0
BITMAP
40
40
40
F8
84
84
F8
ENDCHAR

STARTCHAR afii10047
ENCODING 205
SWIDTH 694 0
DWIDTH 7 0
BBX 6 7 1 0
BITMAP
38
44
04
3C
08
88
70
ENDCHAR

STARTCHAR afii10048
ENCODING 206
SWIDTH 1023 0
DWIDTH 10 0
BBX 9 7 1 0
BITMAP
4700
4880
5080
7080
9080
9100
8E00
ENDCHAR

STARTCHAR afii10049
ENCODING 207
SWIDTH 688 0
DWIDTH 7 0
BBX 7 7 0 0
BITMAP
3E
42
42
3C
24
44
84
ENDCHAR

STARTCHAR afii10065
ENCODING 208
SWIDTH 556 0
DWIDTH 6 0
BBX 5 5 1 0
BITMAP
30
08
78
90
E8
ENDCHAR

STARTCHAR afii10066
ENCODING 209
SWIDTH 553 0
DWIDTH 6 0
BBX 5 8 1 0
BITMAP
08
30
40
70
48
88
90
60
ENDCHAR

STARTCHAR afii10067
ENCODING 210
SWIDTH 522 0
DWIDTH 5 0
BBX 5 5 0 0
BITMAP
30
48
F0
88
70
ENDCHAR

STARTCHAR afii10068
ENCODING 211
SWIDTH 493 0
DWIDTH 5 0
BBX 5 5 1 0
BITMAP
70
08
70
80
70
ENDCHAR

STARTCHAR afii10069
ENCODING 212
SWIDTH 552 0
DWIDTH 6 0
BBX 5 7 1 0
BITMAP
60
10
38
48
88
90
60
ENDCHAR

STARTCHAR afii10070
ENCODING 213
SWIDTH 556 0
DWIDTH 6 0
BBX 5 5 1 0
BITMAP
30
48
F0
80
70
ENDCHAR

STARTCHAR afii10072
ENCODING 214
SWIDTH 688 0
DWIDTH 7 0
BBX 8 5 -1 0
BITMAP
49
2A
3C
52
92
ENDCHAR

STARTCHAR afii10073
ENCODING 215
SWIDTH 465 0
DWIDTH 5 0
BBX 4 5 1 0
BITMAP
60
10
60
10
E0
ENDCHAR

STARTCHAR afii10074
ENCODING 216
SWIDTH 556 0
DWIDTH 6 0
BBX 5 5 1 0
BITMAP
48
48
90
B0
50
ENDCHAR

STARTCHAR afii10075
ENCODING 217
SWIDTH 556 0
DWIDTH 6 0
BBX 5 8 1 0
BITMAP
28
30
00
48
48
90
B0
50
ENDCHAR

STARTCHAR afii10076
ENCODING 218
SWIDTH 472 0
DWIDTH 5 0
BBX 5 5 1 0
BITMAP
48
50
60
90
90
ENDCHAR

STARTCHAR afii10077
ENCODING 219
SWIDTH 565 0
DWIDTH 6 0
BBX 6 5 0 0
BITMAP
3C
24
24
48
C8
ENDCHAR

STARTCHAR afii10078
ENCODING 220
SWIDTH 687 0
DWIDTH 7 0
BBX 7 5 0 0
BITMAP
42
46
6C
B4
A4
ENDCHAR

STARTCHAR afii10079
ENCODING 221
SWIDTH 550 0
DWIDTH 6 0
BBX 5 5 1 0
BITMAP
48
48
78
90
90
ENDCHAR

STARTCHAR afii10080
ENCODING 222
SWIDTH 556 0
DWIDTH 6 0
BBX 5 5 1 0
BITMAP
30
48
88
90
60
ENDCHAR

STARTCHAR afii10081
ENCODING 223
SWIDTH 550 0
DWIDTH 6 0
BBX 5 5 1 0
BITMAP
78
48
48
90
90
ENDCHAR

STARTCHAR afii10082
ENCODING 224
SWIDTH 556 0
DWIDTH 6 0
BBX 5 7 1 -2
BITMAP
50
68
48
C8
B0
80
80
ENDCHAR

STARTCHAR afii10083
ENCODING 225
SWIDTH 500 0
DWIDTH 5 0
BBX 5 5 1 0
BITMAP
30
48
80
90
60
ENDCHAR

STARTCHAR afii10084
ENCODING 226
SWIDTH 833 0
DWIDTH 9 0
BBX 8 5 1 0
BITMAP
5B
6D
49
92
92
ENDCHAR

STARTCHAR afii10085
ENCODING 227
SWIDTH 500 0
DWIDTH 5 0
BBX 6 7 0 -2
BITMAP
44
48
50
20
20
40
80
ENDCHAR

STARTCHAR afii10086
ENCODING 228
SWIDTH 836 0
DWIDTH 8 0
BBX 9 9 0 -2
BITMAP
0400
0400
3700
4880
8880
8900
7600
1000
1000
ENDCHAR

STARTCHAR afii10087
ENCODING 229
SWIDTH 500 0
DWIDTH 5 0
BBX 5 5 0 0
BITMAP
48
30
20
50
88
ENDCHAR

STARTCHAR afii10088
ENCODING 230
SWIDTH 572 0
DWIDTH 6 0
BBX 5 7 1 -2
BITMAP
48
48
90
B0
58
10
10
ENDCHAR

STARTCHAR afii10089
ENCODING 231
SWIDTH 545 0
DWIDTH 5 0
BBX 5 5 0 0
BITMAP
48
88
70
10
10
ENDCHAR

STARTCHAR afii10090
ENCODING 232
SWIDTH 831 0
DWIDTH 9 0
BBX 8 5 1 0
BITMAP
49
49
92
B6
4A
ENDCHAR

STARTCHAR afii10091
ENCODING 233
SWIDTH 851 0
DWIDTH 9 0
BBX 8 6 1 -1
BITMAP
49
49
92
B6
4B
01
ENDCHAR

STARTCHAR afii10092
ENCODING 234
SWIDTH 621 0
DWIDTH 6 0
BBX 5 5 1 0
BITMAP
40
40
70
88
F0
ENDCHAR

STARTCHAR afii10093
ENCODING 235
SWIDTH 736 0
DWIDTH 7 0
BBX 7 5 0 0
BITMAP
42
42
72
8C
F4
ENDCHAR

STARTCHAR afii10094
ENCODING 236
SWIDTH 526 0
DWIDTH 5 0
BBX 5 5 1 0
BITMAP
40
40
70
88
F0
ENDCHAR

STARTCHAR afii10095
ENCODING 237
SWIDTH 495 0
DWIDTH 5 0
BBX 5 5 0 0
BITMAP
38
48
18
88
70
ENDCHAR

STARTCHAR afii10096
ENCODING 238
SWIDTH 755 0
DWIDTH 8 0
BBX 7 5 1 0
BITMAP
4C
52
E2
A4
98
ENDCHAR

STARTCHAR afii10097
ENCODING 239
SWIDTH 538 0
DWIDTH 5 0
BBX 6 5 0 0
BITMAP
3C
44
38
48
88
ENDCHAR

STARTCHAR afii61352
ENCODING 240
SWIDTH 1083 0
DWIDTH 11 0
BBX 10 7 1 0
BITMAP
4400
4580
6640
EA40
9980
9B80
8800
ENDCHAR

STARTCHAR afii10071
ENCODING 241
SWIDTH 556 0
DWIDTH 6 0
BBX 5 7 1 0
BITMAP
28
00
30
48
F8
80
70
ENDCHAR

STARTCHAR afii10099
ENCODING 242
SWIDTH 556 0
DWIDTH 6 0
BBX 5 9 1 -2
BITMAP
40
F0
40
70
88
88
88
10
20
ENDCHAR

STARTCHAR afii10100
ENCODING 243
SWIDTH 386 0
DWIDTH 4 0
BBX 4 8 1 0
BITMAP
10
20
00
70
40
40
80
80
ENDCHAR

STARTCHAR afii10101
ENCODING 244
SWIDTH 495 0
DWIDTH 5 0
BBX 5 5 1 0
BITMAP
70
88
E0
80
F0
ENDCHAR

STARTCHAR afii10102
ENCODING 245
SWIDTH 500 0
DWIDTH 4 0
BBX 5 5 0 0
BITMAP
30
48
20
90
60
ENDCHAR

STARTCHAR afii10103
ENCODING 246
SWIDTH 222 0
DWIDTH 3 0
BBX 3 7 1 0
BITMAP
20
00
40
40
40
80
80
ENDCHAR

STARTCHAR afii10104
ENCODING 247
SWIDTH 278 0
DWIDTH 3 0
BBX 4 7 1 0
BITMAP
50
00
40
40
40
80
80
ENDCHAR

STARTCHAR afii10105
ENCODING 248
SWIDTH 222 0
DWIDTH 3 0
BBX 4 9 0 -2
BITMAP
10
00
20
20
20
40
40
40
80
ENDCHAR

STARTCHAR afii10106
ENCODING 249
SWIDTH 910 0
DWIDTH 9 0
BBX 9 5 0 0
BITMAP
3C00
2400
2700
4880
8F00
ENDCHAR

STARTCHAR afii10107
ENCODING 250
SWIDTH 828 0
DWIDTH 8 0
BBX 8 5 1 0
BITMAP
48
48
7E
91
9E
ENDCHAR

STARTCHAR afii10108
ENCODING 251
SWIDTH 556 0
DWIDTH 6 0
BBX 5 7 1 0
BITMAP
40
F0
40
70
88
88
88
ENDCHAR

STARTCHAR afii10109
ENCODING 252
SWIDTH 472 0
DWIDTH 5 0
BBX 5 8 1 0
BITMAP
08
10
00
48
50
60
90
90
ENDCHAR

STARTCHAR section
ENCODING 253
SWIDTH 556 0
DWIDTH 6 0
BBX 5 9 1 -2
BITMAP
30
48
60
90
88
48
30
90
60
ENDCHAR

STARTCHAR afii10110
ENCODING 254
SWIDTH 500 0
DWIDTH 5 0
BBX 6 10 0 -2
BITMAP
24
18
00
44
48
50
20
20
40
80
ENDCHAR

STARTCHAR afii10193
ENCODING 255
SWIDTH 556 0
DWIDTH 6 0
BBX 5 7 1 -2
BITMAP
48
48
90
B0
50
40
40
ENDCHAR
ENDFONT
